# Blender v2.74 (sub 0) OBJ File: 'cone.blend'
# www.blender.org
mtllib cone.mtl
o Cone
v 0.346060 0.057447 2.468854
v 0.349392 0.224734 2.573860
v 0.353501 0.409279 2.644207
v 0.358230 0.603988 2.677193
v 0.363396 0.801381 2.671550
v 0.368801 0.993871 2.627494
v 0.374238 1.174060 2.546719
v 0.379497 1.335024 2.432328
v 0.384376 1.470578 2.288719
v 2.384218 0.621619 1.691189
v 0.388688 1.575512 2.121409
v 0.392267 1.645793 1.936828
v 0.394975 1.678721 1.742070
v 0.396709 1.673031 1.544619
v 0.397402 1.628940 1.352063
v 0.397027 1.548144 1.171801
v 0.395598 1.433747 1.010762
v 0.393172 1.290145 0.875133
v 0.389840 1.122858 0.770127
v 0.385730 0.938313 0.699780
v 0.381002 0.743603 0.666794
v 0.375836 0.546211 0.672438
v 0.370430 0.353721 0.716494
v 0.364994 0.173532 0.797269
v 0.359735 0.012568 0.911660
v 0.354856 -0.122986 1.055269
v 0.350544 -0.227920 1.222580
v 0.346965 -0.298201 1.407161
v 0.344257 -0.331129 1.601919
v 0.342523 -0.325438 1.799370
v 0.341830 -0.281347 1.991926
v 0.342205 -0.200551 2.172188
v 0.343633 -0.086154 2.333227
vn -0.526600 -0.736700 0.424100
vn 0.999600 -0.025900 0.009500
vn -0.525400 -0.638600 0.562200
vn -0.523300 -0.515500 0.678500
vn -0.520400 -0.372100 0.768600
vn -0.526900 -0.806000 0.269500
vn -0.526300 -0.843800 0.104400
vn -0.524800 -0.848700 -0.064900
vn -0.522500 -0.820500 -0.231900
vn -0.519400 -0.760200 -0.390100
vn -0.515700 -0.670200 -0.533600
vn -0.511600 -0.554000 -0.656800
vn -0.507000 -0.415900 -0.754900
vn -0.502400 -0.261400 -0.824200
vn -0.497800 -0.096400 -0.861900
vn -0.493300 0.072900 -0.866800
vn -0.489300 0.239800 -0.838500
vn -0.485700 0.398100 -0.778200
vn -0.482900 0.541600 -0.688100
vn -0.480800 0.664700 -0.571800
vn -0.479600 0.762800 -0.433700
vn -0.479300 0.832100 -0.279100
vn -0.479800 0.869900 -0.114000
vn -0.481300 0.874800 0.055300
vn -0.483700 0.846500 0.222300
vn -0.486700 0.786200 0.380600
vn -0.490400 0.696300 0.524100
vn -0.494600 0.580000 0.647200
vn -0.499100 0.442000 0.745300
vn -0.503800 0.287500 0.814600
vn -0.508400 0.122400 0.852400
vn -0.512800 -0.046800 0.857200
vn -0.516900 -0.213800 0.828900
usemtl None
s 1
f 32//1 10//2 33//3
f 1//4 10//2 2//5
f 31//6 10//2 32//1
f 30//7 10//2 31//6
f 29//8 10//2 30//7
f 28//9 10//2 29//8
f 27//10 10//2 28//9
f 26//11 10//2 27//10
f 25//12 10//2 26//11
f 24//13 10//2 25//12
f 23//14 10//2 24//13
f 22//15 10//2 23//14
f 21//16 10//2 22//15
f 20//17 10//2 21//16
f 19//18 10//2 20//17
f 18//19 10//2 19//18
f 17//20 10//2 18//19
f 16//21 10//2 17//20
f 15//22 10//2 16//21
f 14//23 10//2 15//22
f 13//24 10//2 14//23
f 12//25 10//2 13//24
f 11//26 10//2 12//25
f 9//27 10//2 11//26
f 8//28 10//2 9//27
f 7//29 10//2 8//28
f 6//30 10//2 7//29
f 5//31 10//2 6//30
f 4//32 10//2 5//31
f 3//33 10//2 4//32
f 33//3 10//2 1//4
f 2//5 10//2 3//33
f 1//4 9//27 18//19
f 32//1 33//3 1//4
f 30//7 31//6 32//1
f 28//9 29//8 30//7
f 30//7 27//10 28//9
f 22//15 25//12 26//11
f 22//15 23//14 24//13
f 20//17 21//16 22//15
f 18//19 19//18 20//17
f 16//21 17//20 18//19
f 18//19 15//22 16//21
f 12//25 13//24 14//23
f 14//23 11//26 12//25
f 7//29 8//28 9//27
f 5//31 6//30 7//29
f 3//33 4//32 5//31
f 5//31 2//5 3//33
f 26//11 32//1 1//4
f 26//11 27//10 30//7
f 22//15 24//13 25//12
f 26//11 20//17 22//15
f 14//23 15//22 18//19
f 9//27 11//26 14//23
f 5//31 7//29 9//27
f 1//4 2//5 5//31
f 26//11 30//7 32//1
f 18//19 20//17 26//11
f 9//27 14//23 18//19
f 1//4 5//31 9//27
f 18//19 26//11 1//4
